# xmcd CD database file
#
# Track frame offsets:
#	150
#	13200
#	26010
#
# Disc length: 520 seconds
#
# Revision: 0
# Processed by: cddbd v1.5PL3 Copyright (c) Steve Scherf et al.
# Submitted via: CDex 1.51
#
DISCID=1d020603
DTITLE=七緒香 - いーんじゃない！！
DYEAR=1997
DGENRE=JPop
TTITLE0=いーんじゃない！！
TTITLE1=Be All Right
TTITLE2=いーんじゃない！！ (original karaoke)
EXTD=YEAR: 1997
EXTT0=
EXTT1=
EXTT2=
PLAYORDER=
